<?xml version="1.0" encoding="UTF-8"?> <!-- Generator: Adobe Illustrator 24.0.0, SVG Export Plug-In . SVG Version: 6.00 Build 0) --> <svg xmlns="http://www.w3.org/2000/svg" xmlns:xlink="http://www.w3.org/1999/xlink" version="1.1" id="Layer_1" x="0px" y="0px" viewBox="0 0 66 66" style="enable-background:new 0 0 66 66;" xml:space="preserve"> <style type="text/css"> .st0{fill:#FFFFFF;} </style> <g> <path class="st0" d="M33,66C14.804,66,0,51.196,0,33S14.804,0,33,0s33,14.804,33,33S51.196,66,33,66z M33,6C18.112,6,6,18.112,6,33 s12.112,27,27,27s27-12.112,27-27S47.888,6,33,6z"></path> </g> <g> <path class="st0" d="M22.583,38.93c1.757,1.067,5.773,2.321,8.534,2.321c2.447,0,3.389-0.502,3.389-1.694 c0-1.13-0.69-1.569-4.016-2.635c-6.84-2.134-9.162-5.836-9.099-9.413c0-6.149,5.272-10.605,13.429-10.605 c3.765,0,7.154,0.879,9.162,1.758l-1.82,7.655c-1.443-0.69-4.33-1.694-6.84-1.694c-1.945,0-3.075,0.502-3.075,1.757 c0,1.004,1.004,1.632,4.644,2.824c6.087,1.946,8.409,5.146,8.471,9.539c0,5.898-4.581,10.354-14.119,10.354 c-4.33,0-8.158-0.941-10.605-2.196L22.583,38.93z"></path> </g> </svg> 